<?xml version="1.0" encoding="UTF-8"?>
<svg id="Layer_1" data-name="Layer 1" xmlns="http://www.w3.org/2000/svg" viewBox="0 0 1024 1024">
  <defs>
    <style>
      .cls-1 {
        fill: #ed2764;
      }

      .cls-1, .cls-2 {
        stroke-width: 0px;
      }

      .cls-2 {
        fill: #fff;
      }
    </style>
  </defs>
  <rect class="cls-1" width="1024" height="1024" rx="200" ry="200"/>
  <g>
    <path class="cls-2" d="M237.21,391.04h135.06l-10.62,403.92h-121.47l-2.98-403.92Z"/>
    <path class="cls-2" d="M575.71,197.8l-2.97,197.06c33.69-11.03,64.83-16.56,93.43-16.56,37.1,0,71.07,11.04,101.94,33.13,54.93,39.36,82.4,97.54,82.4,174.56,0,70.8-23.78,126.43-71.36,166.92-41.62,35.67-92.31,53.51-152.05,53.51-49.56,0-96.98-12.31-142.28-36.95-13.02-7.07-25.77-15.7-38.23-25.9,5.38-20.39,7.93-45.72,7.65-76.02l-5.1-375.45c0-22.09-2.26-46.43-6.79-73.05l133.35-21.24ZM570.2,508.27l.85,172.44c19.25,11.9,39.49,17.83,60.73,17.83,34.83,0,62.15-13.72,81.98-41.19,13.31-18.38,19.96-41.05,19.96-67.94,0-33.13-10.19-58.33-30.58-75.6-18.68-15.86-40.92-23.79-66.68-23.79-22.38,0-44.46,6.1-66.26,18.27Z"/>
    <path class="cls-2" d="M372.41,346.17h-7.99c-99.51,0-129.51-55.5-129.51-55.5v-94.59s33.5,32.05,127.5,32.05h10v118.05Z"/>
  </g>
</svg>